<?xml version="1.0" standalone="no"?>
<!DOCTYPE svg PUBLIC "-//W3C//DTD SVG 1.1//EN" "http://www.w3.org/Graphics/SVG/1.1/DTD/svg11.dtd" >
<svg xmlns="http://www.w3.org/2000/svg">
<metadata>
This is a custom SVG webfont generated by Font Squirrel.
Copyright   : Typeface  FontSite Inc 19962008 All Rights Reserved wwwfontsitecom
Designer    : FontSitecom
Foundry URL : httpwwwfontsitecom
</metadata>
<defs>
<font id="FontSiteSansRoman" horiz-adv-x="1024" >
<font-face units-per-em="2048" ascent="1690" descent="-358" />
<missing-glyph horiz-adv-x="614" />
<glyph unicode=" "  horiz-adv-x="614" />
<glyph unicode="&#x09;" horiz-adv-x="614" />
<glyph unicode="&#xa0;" horiz-adv-x="614" />
<glyph unicode="!" horiz-adv-x="507" d="M152 0v205h204v-205h-204zM156 817v549h198v-549l-53 -489h-94z" />
<glyph unicode="&#x22;" horiz-adv-x="735" d="M88 1366h219l-35 -547h-149zM430 1366h217l-35 -547h-149z" />
<glyph unicode="#" horiz-adv-x="1261" d="M135 465l15 98h243l31 219h-244l15 101h243l51 360h103l-51 -360h231l51 360h103l-52 -360h254l-14 -101h-254l-31 -219h254l-14 -98h-254l-55 -393h-103l56 393h-232l-53 -393h-104l55 393h-244zM496 563h231l31 219h-232z" />
<glyph unicode="$" horiz-adv-x="1146" d="M45 467h191q18 -152 79.5 -220.5t196.5 -86.5v465q-104 29 -152 45q-266 90 -266 319q0 127 82 229.5t215 139.5q41 12 121 20v158h129v-158q195 -14 307.5 -117.5t116.5 -273.5h-191q-2 96 -64 155.5t-169 67.5v-424l21 -4l18 -4q197 -43 278 -92q68 -41 107 -114.5 t39 -161.5q0 -182 -127 -298t-336 -124v-158h-129v160q-457 51 -467 477zM291 997q0 -68 51 -109.5t170 -70.5v391q-106 -18 -163.5 -73.5t-57.5 -137.5zM641 160q121 8 190.5 70.5t69.5 158.5q0 82 -51 125t-182 72l-27 8v-434z" />
<glyph unicode="%" horiz-adv-x="1417" d="M68 1022q0 168 66.5 259t191.5 91q127 0 192.5 -90t65.5 -264q0 -166 -67.5 -256t-190.5 -90q-125 0 -191.5 91t-66.5 259zM190 1021.5q0 -233.5 135.5 -233.5t135.5 232q0 236 -135.5 235.5t-135.5 -234zM401 0l510 1366h109l-512 -1366h-107zM834 344q0 168 66.5 259 t189.5 91q125 0 191.5 -91t66.5 -263q0 -166 -68 -256t-190.5 -90t-189 91t-66.5 259zM956 344.5q0 -233.5 136 -233.5q133 0 133 231q0 236 -135 236q-134 0 -134 -233.5z" />
<glyph unicode="&#x26;" horiz-adv-x="1161" d="M82 354q0 121 66.5 214.5t230.5 197.5q-82 109 -112.5 176.5t-30.5 136.5q0 119 85 198t216 79q133 0 218 -79t85 -204q0 -96 -51.5 -176t-172.5 -168l189 -254q16 43 29 156h155q-6 -160 -63 -316l231 -315h-205l-118 158q-137 -174 -353 -174q-172 0 -285.5 105 t-113.5 265zM266 365q0 -92 65.5 -155t164.5 -63q152 0 239 148l-258 342q-211 -110 -211 -272zM406 1077q0 -80 120 -225q8 8 21 16q123 98 123 201q0 55 -38 92t-95 37q-55 0 -93 -35t-38 -86z" />
<glyph unicode="'" horiz-adv-x="401" d="M88 1366h225l-34 -547h-156z" />
<glyph unicode="(" horiz-adv-x="636" d="M100 547q0 424 285 819h135q-229 -381 -229 -831q0 -449 229 -848h-135q-285 434 -285 860z" />
<glyph unicode=")" horiz-adv-x="636" d="M117 -313q229 381 229 831q0 446 -229 848h135q285 -438 285 -860q0 -424 -285 -819h-135z" />
<glyph unicode="*" horiz-adv-x="774" d="M82 1085l51 156l178 -63l-6 188h164l-6 -188l178 63l51 -156l-182 -53l117 -149l-133 -97l-107 156l-106 -156l-134 97l117 149z" />
<glyph unicode="+" d="M39 655v105h418v399h106v-399h420v-105h-420v-397h-106v397h-418z" />
<glyph unicode="," horiz-adv-x="487" d="M137 0v205h211v-174q0 -256 -211 -310v123q82 41 82 156h-82z" />
<glyph unicode="-" horiz-adv-x="606" d="M0 475v170h606v-170h-606z" />
<glyph unicode="." horiz-adv-x="487" d="M137 0v205h211v-205h-211z" />
<glyph unicode="/" horiz-adv-x="778" d="M47 0l518 1366h162l-518 -1366h-162z" />
<glyph unicode="0" horiz-adv-x="1146" d="M104 678q0 303 97 477q59 106 157.5 165.5t214.5 59.5q121 0 219.5 -59t155.5 -166q96 -178 96 -487q0 -291 -96 -469q-59 -106 -157.5 -166t-217.5 -60q-117 0 -216 59.5t-156 166.5q-97 178 -97 479zM295 678q0 -246 57 -377q31 -72 91.5 -115t129.5 -43q72 0 131.5 42 t92.5 116q57 135 57 369q0 250 -57 383q-33 74 -92.5 115.5t-131 41.5t-130 -42t-91.5 -115q-57 -135 -57 -375z" />
<glyph unicode="1" horiz-adv-x="1146" d="M225 971v133h15q122 0 214 64q97 69 121 184h140v-1352h-180v971h-310z" />
<glyph unicode="2" horiz-adv-x="1146" d="M117 0q0 188 103.5 329.5t361.5 307.5q152 98 204 164.5t52 165.5q0 106 -70 174.5t-178 68.5q-176 0 -232 -155q-18 -55 -18 -174h-182v51q0 195 96 309q123 139 342 139q193 0 312.5 -113.5t119.5 -297.5q0 -176 -121 -303q-39 -41 -85 -75t-197 -132 q-106 -72 -184.5 -152t-96.5 -137h668v-170h-895z" />
<glyph unicode="3" horiz-adv-x="1146" d="M109 449h180q6 -137 88 -221.5t209 -84.5q115 0 189.5 68t74.5 170q0 113 -87 185.5t-218 66.5l-45 -2v155q16 -2 37 -2q123 0 198.5 61.5t75.5 158.5q0 90 -63.5 148t-161.5 58q-115 0 -180.5 -72.5t-63.5 -201.5h-178q0 205 115.5 324.5t314.5 119.5 q176 0 291.5 -104.5t115.5 -263.5q0 -190 -196 -295q236 -115 235 -338q0 -176 -128 -291t-322 -115q-211 0 -345 132.5t-136 343.5z" />
<glyph unicode="4" horiz-adv-x="1146" d="M100 311v185l609 856h157v-887h168v-154h-168v-311h-180v311h-586zM272 465h414v416v57l2 49q0 25 4 86q-76 -119 -108 -164z" />
<glyph unicode="5" horiz-adv-x="1146" d="M127 381l176 12q57 -256 283 -256q119 0 196.5 86t77.5 219q0 131 -79 215t-201 84q-143 0 -258 -120h-168l106 731h713v-170h-570l-53 -357q121 74 256 74q195 0 316.5 -125t121.5 -323q0 -209 -130 -343.5t-332 -134.5q-188 0 -310 110t-145 298z" />
<glyph unicode="6" horiz-adv-x="1146" d="M113 647q0 342 134 537.5t367 195.5q164 0 270.5 -100t131.5 -276h-178q-51 219 -228 219q-139 0 -222 -133.5t-99 -382.5q80 92 152.5 128.5t172.5 36.5q184 0 302 -123.5t118 -318.5q0 -199 -121.5 -328t-310.5 -129q-225 0 -357 181.5t-132 492.5zM334 424 q0 -123 73.5 -205t184.5 -82q109 0 183.5 82t74.5 201q0 127 -74 208t-186 81q-111 0 -183.5 -80t-72.5 -205z" />
<glyph unicode="7" horiz-adv-x="1146" d="M139 1182v170h883v-146q-426 -412 -520 -1206h-205q45 344 187.5 665.5t336.5 516.5h-682z" />
<glyph unicode="8" horiz-adv-x="1146" d="M106 389q0 229 232 356q-170 98 -170 285q0 152 114.5 251t291 99t290 -99t113.5 -251q0 -186 -170 -285q231 -127 231 -356q0 -178 -133 -297t-332 -119q-201 0 -334 119t-133 297zM297 399q0 -113 78 -184.5t198 -71.5q119 0 197 72t78 180q0 115 -77 186.5t-200 71.5 q-119 0 -196.5 -71.5t-77.5 -182.5zM352 1016q0 -86 62.5 -140.5t159 -54.5t158 54.5t61.5 138.5q0 88 -60.5 142t-161.5 54q-96 0 -157.5 -54t-61.5 -140z" />
<glyph unicode="9" horiz-adv-x="1146" d="M113 924q0 199 121.5 327.5t310.5 128.5q225 0 357 -181t132 -494q0 -340 -134 -536t-368 -196q-164 0 -270 99.5t-133 275.5h180q51 -217 228 -217q139 0 222 133t99 381q-80 -90 -152.5 -128t-173.5 -38q-184 0 -301.5 125t-117.5 320zM297 934q0 -127 73.5 -209 t186.5 -82q111 0 183.5 81t72.5 204q0 125 -73.5 207t-184.5 82q-109 0 -183.5 -82t-74.5 -201z" />
<glyph unicode=":" horiz-adv-x="487" d="M137 0v205h211v-205h-211zM137 784v205h211v-205h-211z" />
<glyph unicode=";" horiz-adv-x="487" d="M137 0v205h211v-174q0 -256 -211 -310v123q82 41 82 156h-82zM137 784v205h211v-205h-211z" />
<glyph unicode="&#x3c;" d="M68 600v174l886 434v-204l-669 -318l669 -317v-201z" />
<glyph unicode="=" d="M39 512v100h946v-100h-946zM39 805v100h946v-100h-946z" />
<glyph unicode="&#x3e;" d="M70 168v203l669 317l-669 318v202l886 -434v-174z" />
<glyph unicode="?" horiz-adv-x="1007" d="M74 911q6 231 123.5 356.5t328.5 125.5q186 0 303 -103.5t117 -269.5q0 -121 -74 -213q-23 -29 -174 -174q-68 -61 -89 -122.5t-21 -182.5h-166v49q0 133 59 239q43 76 164 193q68 66 92.5 110t24.5 101q0 94 -68.5 154.5t-175.5 60.5q-264 0 -270 -324h-174zM397 0v205 h211v-205h-211z" />
<glyph unicode="@" horiz-adv-x="1402" d="M53 662q0 287 200 486.5t486 199.5q256 0 433.5 -163t177.5 -399q0 -233 -179 -380q-125 -102 -249 -103q-121 0 -140 107q-109 -106 -219 -107q-98 0 -159.5 69.5t-61.5 180.5q0 178 121 325.5t266 147.5q131 0 189 -123l32 92h109l-164 -481q-18 -55 -18 -84 q0 -63 73 -63q94 0 197 102q127 131 127 313q0 209 -154.5 352.5t-380.5 143.5q-256 0 -431 -178t-175 -438q0 -256 173 -431.5t425 -175.5q156 0 295 79t213 210l84 -2q-74 -160 -237.5 -259t-356.5 -99q-283 0 -479.5 197.5t-196.5 480.5zM461 520q0 -72 32.5 -113.5 t88.5 -41.5q78 0 139 65q41 43 84 158l47 129q25 72 25 108q0 57 -35 96.5t-84 39.5q-109 0 -203 -140.5t-94 -300.5z" />
<glyph unicode="A" horiz-adv-x="1255" d="M20 0l502 1366h209l504 -1366h-213l-141 410h-514l-140 -410h-207zM424 573h401l-200 582z" />
<glyph unicode="B" horiz-adv-x="1318" d="M162 0v1366h528q236 0 350 -76q141 -94 142 -276q0 -199 -193 -297q233 -86 234 -324q0 -211 -158 -313q-68 -45 -157 -62.5t-244 -17.5h-502zM346 170h397q131 0 206 60.5t75 167t-67.5 165t-192.5 58.5h-418v-451zM346 780h367q135 0 200 54q70 57 70 153q0 98 -70 156 q-66 53 -200 53h-367v-416z" />
<glyph unicode="C" horiz-adv-x="1394" d="M104 688q0 311 179.5 510t459.5 199q217 0 364.5 -117t192.5 -324l-190 -18q-31 135 -128 212t-239 77q-197 0 -315.5 -146.5t-118.5 -388.5q0 -248 118 -400.5t310 -152.5q160 0 264.5 102.5t126.5 278.5h197q-23 -188 -117 -317q-168 -233 -475 -234q-305 0 -479 234 q-150 202 -150 485z" />
<glyph unicode="D" horiz-adv-x="1361" d="M162 0v1366h491q332 0 482 -219q123 -178 122 -451q0 -324 -165.5 -510t-452.5 -186h-477zM356 170h244q459 0 459 520q0 227 -88 359q-100 147 -359 147h-256v-1026z" />
<glyph unicode="E" horiz-adv-x="1230" d="M162 0v1366h958v-170h-764v-412h699v-159h-699v-455h791v-170h-985z" />
<glyph unicode="F" horiz-adv-x="1124" d="M162 0v1366h921v-170h-727v-410h611v-163h-611v-623h-194z" />
<glyph unicode="G" horiz-adv-x="1466" d="M104 682q0 319 179.5 517t468.5 198q225 0 376.5 -122t182.5 -327h-195q-29 133 -126 206t-242 73q-201 0 -320 -142.5t-119 -384.5q0 -252 124 -405.5t325 -153.5q109 0 197.5 52.5t131.5 142.5q45 90 54 237h-404v160h594v-733h-145l-12 227q-61 -106 -132 -159 q-127 -98 -315 -99q-274 0 -448.5 199t-174.5 514z" />
<glyph unicode="H" horiz-adv-x="1396" d="M162 0v1366h194v-569h686v569h195v-1366h-195v627h-686v-627h-194z" />
<glyph unicode="I" horiz-adv-x="516" d="M162 0v1366h194v-1366h-194z" />
<glyph unicode="J" horiz-adv-x="985" d="M27 449h194q2 -133 21 -187q45 -123 184 -123q102 0 154 68q49 59 49 194v965h194v-969q0 -121 -19.5 -190.5t-68.5 -120.5q-106 -117 -309 -117q-137 0 -233.5 58.5t-137.5 167.5q-26 72 -28 254z" />
<glyph unicode="K" horiz-adv-x="1323" d="M162 0v1366h194v-659l658 659h248l-560 -549l617 -817h-240l-504 692l-219 -215v-477h-194z" />
<glyph unicode="L" horiz-adv-x="1107" d="M162 0v1366h194v-1196h711v-170h-905z" />
<glyph unicode="M" horiz-adv-x="1644" d="M162 0v1366h239l340 -874q41 -106 82 -242q61 182 82 237l338 873h240v-1360h-185v803q0 121 11 299q-51 -172 -101 -299l-309 -803h-154l-317 819q-43 111 -92 283q10 -170 10 -299v-803h-184z" />
<glyph unicode="N" horiz-adv-x="1396" d="M162 0v1366h198l537 -831q86 -129 162 -283q-6 113 -6 256v850h184v-1358h-197l-559 862q-86 131 -141 236q6 -92 6 -258v-840h-184z" />
<glyph unicode="O" horiz-adv-x="1529" d="M104 684q0 311 185.5 512t472.5 201q295 0 478 -201t183 -522q0 -305 -186 -505t-473 -200q-289 0 -474.5 201t-185.5 514zM303 684q0 -244 128 -394.5t333 -150.5q203 0 332 150.5t129 386.5q0 248 -127 399.5t-334 151.5q-205 0 -333 -150.5t-128 -392.5z" />
<glyph unicode="P" horiz-adv-x="1214" d="M162 0v1366h479q254 0 377 -98q135 -109 135 -312q0 -186 -127 -297q-66 -57 -148.5 -80.5t-222.5 -23.5h-299v-555h-194zM356 715h314q150 0 219 63q76 66 76 176q0 113 -76 179q-70 63 -219 63h-314v-481z" />
<glyph unicode="Q" horiz-adv-x="1495" d="M104 684q0 311 185.5 512t474.5 201q291 0 476 -201t185 -514q0 -156 -54 -297t-150 -233l170 -164l-125 -127l-189 184q-139 -76 -313 -76q-289 0 -474.5 201t-185.5 514zM303 684q0 -242 128 -393.5t333 -151.5q92 0 178 35l-143 139l125 127l166 -159q137 154 137 403 q0 242 -128 392.5t-333 150.5t-334 -150.5t-129 -392.5z" />
<glyph unicode="R" horiz-adv-x="1308" d="M162 0v1366h557q133 0 214 -20.5t142 -71.5q125 -100 125 -289q0 -227 -211 -334q80 -37 116 -101.5t46 -187.5l8 -114q14 -172 68 -248h-238q-8 29 -31 248l-10 100q-23 215 -219 215h-373v-563h-194zM356 723h326q152 0 227 57q92 66 92 191q0 106 -67.5 165.5 t-188.5 59.5h-389v-473z" />
<glyph unicode="S" horiz-adv-x="1318" d="M88 477h203q16 -164 118.5 -251t280.5 -87q147 0 241.5 65.5t94.5 168.5q0 152 -217 205l-307 73q-186 45 -274.5 130t-88.5 225q0 180 138.5 285.5t373.5 105.5q233 0 362.5 -111.5t162.5 -341.5h-199q-31 281 -340 281q-135 0 -217 -54.5t-82 -142.5q0 -76 58.5 -123 t187.5 -76l221 -49q219 -49 309 -131q111 -98 111 -262q0 -193 -145.5 -305.5t-395.5 -112.5q-266 0 -421 131t-175 377z" />
<glyph unicode="T" horiz-adv-x="1087" d="M20 1196v170h1047v-170h-426v-1196h-195v1196h-426z" />
<glyph unicode="U" horiz-adv-x="1392" d="M162 473v893h194v-920q0 -145 90.5 -226t251.5 -81q160 0 250 82t90 225v920h195v-893q0 -240 -121 -360q-147 -143 -416 -144q-266 0 -413 144q-121 120 -121 360z" />
<glyph unicode="V" horiz-adv-x="1206" d="M20 1366h205l295 -889q33 -94 90 -295q35 139 84 295l287 889h205l-473 -1366h-211z" />
<glyph unicode="W" horiz-adv-x="1726" d="M20 1366h195l207 -881q31 -133 49 -266l8 45l13 70q25 129 30 151l213 881h244l217 -854q35 -133 57 -293q29 184 56 293l204 854h193l-350 -1366h-205l-238 926q-37 145 -55 270q-16 -109 -55 -270l-230 -926h-204z" />
<glyph unicode="X" horiz-adv-x="1206" d="M18 0l471 705l-456 661h231l336 -510l334 510h229l-454 -661l479 -705h-225l-363 551l-350 -551h-232z" />
<glyph unicode="Y" horiz-adv-x="1198" d="M-4 1366h229l269 -451q47 -82 108 -202q55 111 109 202l262 451h229l-495 -825v-541h-195v541z" />
<glyph unicode="Z" horiz-adv-x="1214" d="M68 0v170l802 1026h-727v170h969v-170l-807 -1026h852v-170h-1089z" />
<glyph unicode="[" horiz-adv-x="649" d="M141 -313v1679h385v-149h-196v-1381h196v-149h-385z" />
<glyph unicode="\" horiz-adv-x="778" d="M51 1366h162l518 -1366h-162z" />
<glyph unicode="]" horiz-adv-x="649" d="M123 -164h196v1381h-196v149h385v-1679h-385v149z" />
<glyph unicode="^" d="M55 752l342 618h232l342 -618h-189l-270 479l-270 -479h-187z" />
<glyph unicode="_" d="M0 -137h1024v-129h-1024v129z" />
<glyph unicode="`" d="M283 1305h231l90 -226h-149z" />
<glyph unicode="a" horiz-adv-x="1069" d="M88 266q0 240 299 299l219 43q88 16 116 36t28 67q0 72 -58.5 113.5t-159.5 41.5q-156 0 -198 -84q-18 -33 -23 -120h-176q12 164 80 241q100 113 322 113q182 0 283.5 -84t101.5 -238v-465q0 -57 10 -75.5t43 -18.5q20 0 49 10v-145q-76 -14 -123 -14q-66 0 -101.5 31.5 t-45.5 101.5q-145 -145 -342 -146q-143 0 -233.5 81t-90.5 212zM279 274q0 -68 51 -109.5t133 -41.5q119 0 205 75.5t86 182.5v127q-47 -20 -117 -37l-193 -45q-165 -39 -165 -152z" />
<glyph unicode="b" horiz-adv-x="1155" d="M137 0v1366h189v-489q137 139 315 139q193 0 309.5 -141.5t116.5 -374.5q0 -242 -116.5 -384.5t-315.5 -142.5q-178 0 -309 138v-111h-189zM319 500q0 -178 72 -273.5t207 -95.5q133 0 206 95.5t73 269.5t-73 268t-206 94t-206 -94t-73 -264z" />
<glyph unicode="c" horiz-adv-x="1083" d="M88 496q0 236 134 378t360 142q182 0 293.5 -95.5t132.5 -267.5h-179q-43 205 -249 205q-135 0 -218 -99.5t-83 -260.5q0 -166 81.5 -266.5t219.5 -100.5q223 0 262 240h178q-20 -188 -136 -293t-309 -105q-221 0 -354 142.5t-133 380.5z" />
<glyph unicode="d" horiz-adv-x="1155" d="M86 500q0 236 116.5 376t313.5 140q180 0 313 -133v483h189v-1366h-189v106q-135 -133 -313 -133q-197 0 -313.5 142.5t-116.5 384.5zM276 496q0 -174 74 -269.5t207 -95.5t208 94t75 264q0 178 -73 273.5t-210 95.5q-133 0 -207 -94t-74 -268z" />
<glyph unicode="e" horiz-adv-x="1083" d="M88 496q0 229 129 374.5t336 145.5q147 0 251.5 -76t153.5 -219q37 -109 39 -272h-721q10 -152 85 -235t202 -83q174 0 240 172h180q-35 -156 -147.5 -243t-276.5 -87q-209 0 -340 146t-131 377zM279 586h522q-6 135 -70.5 207.5t-177.5 72.5q-115 0 -190.5 -77.5 t-83.5 -202.5z" />
<glyph unicode="f" horiz-adv-x="542" d="M25 840v149h139v162q0 129 60.5 184.5t201.5 55.5q41 0 100 -11v-159q-51 6 -71 6q-61 0 -82 -28t-21 -107v-103h174v-149h-174v-840h-188v840h-139z" />
<glyph unicode="g" horiz-adv-x="1122" d="M88 516q0 219 120 359.5t308 140.5q96 0 164 -32t129 -103l-4 108h180v-950q0 -193 -100 -275q-121 -104 -346 -104q-223 0 -330 113q-61 63 -72 182h180q16 -145 228 -145q133 0 196.5 58t63.5 181v113q-121 -129 -293 -129q-186 0 -305 135t-119 348zM279 524.5 q0 -151.5 71.5 -239.5t194.5 -88q121 0 192.5 87t71.5 236q0 156 -70.5 244t-195.5 88q-121 0 -192.5 -88t-71.5 -239.5z" />
<glyph unicode="h" horiz-adv-x="1103" d="M137 0v1366h189v-467q131 119 295 119q182 0 278 -117q66 -84 66 -239v-662h-189v631q0 115 -41 162q-51 57 -151 57q-121 0 -189.5 -70.5t-68.5 -195.5v-584h-189z" />
<glyph unicode="i" horiz-adv-x="462" d="M137 0v989h189v-989h-189zM137 1147v219h189v-219h-189z" />
<glyph unicode="j" horiz-adv-x="487" d="M-14 -137q45 -12 73 -13q102 0 103 144v995h188v-1032q0 -137 -53 -199q-66 -72 -201 -71q-51 0 -110 12v164zM162 1147v219h188v-219h-188z" />
<glyph unicode="k" horiz-adv-x="1044" d="M137 0v1366h189v-750l424 373h249l-399 -352l438 -637h-229l-342 518l-141 -125v-393h-189z" />
<glyph unicode="l" horiz-adv-x="462" d="M137 0v1366h189v-1366h-189z" />
<glyph unicode="m" horiz-adv-x="1587" d="M137 989h180v-125q57 84 117 118t152 34q190 0 256 -166q59 90 126.5 128t172.5 38q160 0 243 -103q63 -78 64 -241v-672h-188v657q0 190 -164 191q-96 0 -152.5 -65.5t-56.5 -180.5v-602h-189v674q0 84 -43 129t-120 45q-96 0 -152.5 -64.5t-56.5 -171.5v-612h-189v989z " />
<glyph unicode="n" horiz-adv-x="1103" d="M137 989h180v-112q74 78 143.5 108.5t170.5 30.5q182 0 268 -109q66 -86 66 -245v-662h-189v647q0 201 -190 201q-121 0 -190.5 -66.5t-69.5 -181.5v-600h-189v989z" />
<glyph unicode="o" horiz-adv-x="1126" d="M88 496q0 231 132 375.5t343 144.5q217 0 347 -144.5t130 -384.5q0 -227 -133 -370.5t-344 -143.5q-213 0 -344 145t-131 378zM279 496q0 -174 74.5 -269.5t211.5 -95.5q133 0 209 95.5t76 262.5q0 176 -75 272.5t-212 96.5q-135 0 -209.5 -95t-74.5 -267z" />
<glyph unicode="p" horiz-adv-x="1150" d="M137 -313v1310h189v-108q131 129 301 129q199 0 318.5 -144.5t119.5 -386.5q0 -236 -114.5 -375t-307.5 -139q-201 0 -317 140v-426h-189zM315 502q0 -174 66 -266q76 -104 215 -105q133 0 205.5 95.5t72.5 269.5t-72.5 269t-205.5 95t-207 -94t-74 -264z" />
<glyph unicode="q" horiz-adv-x="1150" d="M88 497.5q0 237.5 118 378t316 140.5q176 0 303 -133v106h189v-1302h-189v422q-137 -135 -315 -136q-190 0 -306 143.5t-116 381zM279 496q0 -174 72.5 -269.5t205.5 -95.5t206 94t73 264q0 178 -72 273.5t-207 95.5q-133 0 -205.5 -95t-72.5 -267z" />
<glyph unicode="r" horiz-adv-x="712" d="M137 0v989h180v-155q55 80 82 104q78 78 176 78q59 0 105 -25v-170q-51 10 -86 10q-115 0 -191.5 -90t-76.5 -221v-520h-189z" />
<glyph unicode="s" horiz-adv-x="995" d="M70 340h186q8 -98 79 -153.5t187 -55.5q100 0 161.5 42t61.5 110q0 49 -35.5 79.5t-121.5 51.5l-197 49q-150 37 -209 92q-74 63 -73 170q0 127 107.5 209t272.5 82q219 0 328 -131q59 -72 70 -199h-180q-20 92 -73.5 133t-152.5 41q-84 0 -136 -32.5t-52 -84.5 q0 -72 115 -102l229 -59q156 -39 224.5 -107.5t68.5 -183.5q0 -145 -112.5 -231.5t-299.5 -86.5q-201 0 -316.5 95.5t-131.5 271.5z" />
<glyph unicode="t" horiz-adv-x="557" d="M31 840v149h133v314h188v-314h178v-149h-178v-621q0 -90 74 -90q31 0 104 27v-154q-104 -23 -157 -22q-209 0 -209 239v621h-133z" />
<glyph unicode="u" horiz-adv-x="1103" d="M137 328v661h189v-647q0 -201 190 -201q121 0 190.5 66.5t69.5 181.5v600h189v-989h-181v113q-74 -78 -143.5 -109t-169.5 -31q-182 0 -268 109q-66 86 -66 246z" />
<glyph unicode="v" horiz-adv-x="903" d="M6 989h201l168 -530q25 -74 78 -277l10 41l18 74q23 90 45 158l168 534h201l-342 -989h-207z" />
<glyph unicode="w" horiz-adv-x="1380" d="M6 989h195l145 -514l37 -153l23 -119q4 16 16 78l22 100l13 48q8 32 12 44l133 516h178l138 -510q27 -102 57 -276q41 195 63 274l138 512h196l-301 -989h-190l-125 461q-29 109 -64 256l-63 -256l-123 -461h-201z" />
<glyph unicode="x" horiz-adv-x="968" d="M0 0l385 524l-346 465h229l107 -155l114 -166l15 22l31 51q8 12 21 35t24.5 39t13.5 23l102 151h228l-340 -465l385 -524h-230l-155 233q-74 115 -99 148l-102 -148l-166 -233h-217z" />
<glyph unicode="y" horiz-adv-x="978" d="M6 989h203l219 -565q43 -113 74 -209q47 156 67 209l205 565h197l-436 -1108q-39 -102 -99.5 -148t-150.5 -46q-68 0 -152 30v154q72 -27 119 -27q100 0 137 103l27 78z" />
<glyph unicode="z" horiz-adv-x="940" d="M68 0v145l520 674h-484v170h756v-100l-553 -719h590v-170h-829z" />
<glyph unicode="{" d="M254 428v158q63 16 90 59t27 125v342q0 147 71 217q39 37 99.5 49.5t187.5 12.5h39v-185q-119 -2 -158 -37.5t-39 -142.5v-289q0 -96 -24.5 -147t-87.5 -88q63 -35 87.5 -89.5t24.5 -150.5v-282q0 -113 39 -151t158 -38v-174q-16 -2 -37 -2q-133 0 -192.5 13.5 t-98.5 52.5q-70 72 -69 237v318q0 88 -27 131t-90 61z" />
<glyph unicode="|" d="M410 -342v1708h204v-1708h-204z" />
<glyph unicode="}" d="M256 -201q117 4 157 40t40 143v286q0 98 24.5 149.5t87.5 86.5q-63 37 -87.5 90t-24.5 151v283q0 113 -39 149.5t-158 39.5v174h37q133 0 192.5 -13.5t98.5 -52.5q70 -70 69 -238v-315q0 -88 27 -131t90 -61v-158q-63 -18 -90 -60.5t-27 -123.5v-342q0 -152 -71 -218 q-39 -37 -99.5 -50t-187.5 -13q-23 0 -39 2v182z" />
<glyph unicode="~" horiz-adv-x="1366" d="M193 1255q106 246 286 246q74 0 234 -76q135 -63 180 -63q98 0 178 143l105 -84q-104 -242 -304 -241q-41 0 -80.5 14t-158.5 72q-104 51 -162 51q-94 0 -174 -146z" />
<glyph unicode="&#xa1;" horiz-adv-x="507" d="M152 784v205h204v-205h-204zM154 174l53 488h94l51 -488v-549h-198v549z" />
<glyph unicode="&#xa2;" horiz-adv-x="1146" d="M109 670q0 213 107.5 350t295.5 166v180h127v-174q164 -8 270.5 -105.5t120.5 -257.5h-178q-14 88 -70.5 141.5t-142.5 63.5v-727q190 25 225 238h178q-14 -172 -122.5 -278.5t-280.5 -116.5v-150h-127v154q-190 31 -296.5 167t-106.5 349zM299 674q0 -137 55.5 -230.5 t157.5 -126.5v707q-98 -31 -155.5 -125t-57.5 -225z" />
<glyph unicode="&#xa3;" horiz-adv-x="1146" d="M57 147q113 72 161 137.5t48 145.5q0 63 -35 164h-151v139h78q-78 150 -78 256q0 168 137 279.5t344 111.5q313 0 436 -225q53 -98 62 -264h-195q-10 121 -39 182q-33 68 -102.5 106t-159.5 38q-121 0 -201.5 -63.5t-80.5 -160.5q0 -37 11 -66.5t75 -170.5l10 -23h282 v-139h-217q14 -76 15 -100q0 -66 -34 -131.5t-120 -161.5q92 29 143 28q41 0 72 -8t170 -55q49 -16 88 -16q70 0 176 79l43 31l115 -151q-125 -80 -195.5 -108t-148.5 -28q-51 0 -87 9.5t-200 68.5q-55 20 -112 21q-88 0 -195 -88z" />
<glyph unicode="&#xa4;" horiz-adv-x="1423" d="M121 1178l108 106l199 -199q90 55 149.5 76t135.5 21q74 0 132 -19.5t146 -75.5l201 197l106 -108l-196 -195q98 -141 98 -287q0 -72 -19.5 -130t-72.5 -146l195 -197l-107 -106l-195 194q-133 -98 -280 -98q-139 0 -295 98l-195 -194l-106 106l190 197q-92 133 -92 282 q0 72 20.5 132.5t75.5 148.5zM403 696q0 -127 90.5 -218t217.5 -91t218 91t91 220q0 127 -90 219.5t-215 92.5q-131 0 -221.5 -91.5t-90.5 -222.5z" />
<glyph unicode="&#xa5;" horiz-adv-x="1146" d="M8 1366h228l161 -303h373l160 303h229l-172 -303h115v-139h-195l-137 -244h236v-139h-316v-541h-194v541h-336v139h254l-144 244h-207v139h123zM473 924l4 -9q20 -43 55 -104t54 -98q23 47 56.5 105.5t51.5 96.5l4 9h-225z" />
<glyph unicode="&#xa6;" d="M410 313h204v-655h-204v655zM410 670v696h204v-696h-204z" />
<glyph unicode="&#xa7;" horiz-adv-x="1234" d="M141 602q0 174 197 305q-70 92 -70 189q0 129 102.5 213t258.5 84q158 0 255 -88t111 -242h-194q-23 166 -180 166q-72 0 -117 -35t-45 -88q0 -96 131 -180l262 -166q139 -88 190.5 -155.5t51.5 -168.5q0 -88 -44 -157.5t-145 -137.5q84 -100 84 -209q0 -135 -101.5 -218 t-266.5 -83q-352 0 -390 346h191q31 -182 205 -182q76 0 124 41t48 105q1 92 -137 174l-267 155q-135 78 -194.5 157t-59.5 175zM332 621q0 -96 145 -181l211 -123q47 -27 94 -59q121 70 121 162q0 47 -29.5 83t-113.5 89l-211 133q-49 31 -98 72q-119 -84 -119 -176z" />
<glyph unicode="&#xa8;" d="M268 1075v215h174v-215h-174zM582 1075v215h174v-215h-174z" />
<glyph unicode="&#xa9;" horiz-adv-x="1595" d="M92 682q0 297 208 503t509 206q285 0 490.5 -209t205.5 -500q0 -293 -206.5 -500t-497.5 -207q-293 0 -501 207t-208 500zM195 682q0 -252 178 -432t426 -180q250 0 427 179t177 433q0 252 -176 433t-420 181q-256 0 -434 -178t-178 -436zM414 686q0 184 110.5 301 t284.5 117q141 0 241.5 -81t110.5 -204h-100q-18 82 -86 128t-166 46q-121 0 -194.5 -84t-73.5 -223t72.5 -223t193.5 -84q111 0 180.5 60.5t85.5 166.5h101q-12 -152 -114 -245t-255 -93q-176 0 -283.5 116t-107.5 302z" />
<glyph unicode="&#xaa;" horiz-adv-x="698" d="M63 711q0 147 193 182l137 25q51 8 66.5 19t15.5 34q0 39 -33.5 62.5t-93.5 23.5q-90 0 -117 -47q-10 -16 -12 -74h-125q6 115 67.5 169t188.5 54q119 0 183.5 -51t64.5 -145v-275q0 -31 4 -40t21 -9q14 0 41 8v-100q-43 -8 -86 -8q-74 0 -99 69q-84 -78 -207 -78 q-92 0 -150.5 50.5t-58.5 130.5zM199 715q0 -37 29.5 -59.5t76.5 -22.5q72 0 122 43t50 102v64q-14 -6 -63 -19l-119 -26q-96 -21 -96 -82z" />
<glyph unicode="&#xab;" horiz-adv-x="802" d="M82 461v205l276 229v-199l-176 -133l176 -133v-199zM422 461v205l276 229v-199l-176 -133l176 -133v-199z" />
<glyph unicode="&#xac;" d="M68 397v178h886v-575h-198v397h-688z" />
<glyph unicode="&#xad;" horiz-adv-x="606" d="M0 475v170h606v-170h-606z" />
<glyph unicode="&#xae;" horiz-adv-x="1595" d="M92 682q0 297 208 503t509 206q285 0 490.5 -209t205.5 -500q0 -293 -207.5 -500t-498.5 -207t-499 207t-208 500zM195 682q0 -252 178 -432t426 -180q250 0 427 179t177 433q0 252 -176 433t-420 181q-256 0 -434 -178t-178 -436zM498 281v800h338q139 0 211.5 -57 t72.5 -166q0 -137 -141 -194q76 -27 101.5 -77t29.5 -179q2 -90 20 -127h-122q-12 20 -21 151q-8 129 -55 160q-43 31 -141 31h-166v-342h-127zM625 702h174q197 0 196 150q0 145 -182 145h-188v-295z" />
<glyph unicode="&#xaf;" d="M240 1126v129h546v-129h-546z" />
<glyph unicode="&#xb0;" d="M213 1065q0 125 88 212t213 87q123 0 210 -88t87 -213q0 -121 -88 -209t-209 -88q-125 0 -213 87t-88 212zM303 1065q0 -86 61.5 -148.5t147.5 -62.5q84 0 146.5 61.5t62.5 145.5q0 90 -61.5 152.5t-149.5 62.5q-84 0 -145.5 -62.5t-61.5 -148.5z" />
<glyph unicode="&#xb1;" d="M39 94v105h946v-105h-946zM39 676v104h418v400h106v-400h420v-104h-420v-389h-106v389h-418z" />
<glyph unicode="&#xb2;" horiz-adv-x="751" d="M74 547q-2 117 63.5 202t233.5 185q92 55 124.5 94t32.5 94q0 59 -42 98.5t-107 39.5q-109 0 -141 -86q-10 -29 -11 -109h-127q-2 16 -2 39q0 129 74 199.5t209 70.5q125 0 203 -68.5t78 -181.5q0 -106 -78 -184q-39 -37 -178 -121q-61 -37 -109.5 -82t-63.5 -75h418 v-115h-577z" />
<glyph unicode="&#xb3;" horiz-adv-x="751" d="M51 825h129q4 -84 52.5 -132t127.5 -48q70 0 115 38t45 95q0 61 -52 101.5t-134 40.5q-18 0 -35 -2v104h29q76 0 122 34t46 89q0 49 -39 82t-97 33q-68 0 -107.5 -40t-39.5 -108v-14h-127q0 127 75 201.5t204 74.5q113 0 188.5 -64.5t75.5 -160.5q0 -115 -115 -174 q139 -66 139 -199q0 -106 -83 -176t-208 -70q-137 0 -222 81t-89 214z" />
<glyph unicode="&#xb4;" d="M420 1079l90 226h231l-172 -226h-149z" />
<glyph unicode="&#xb5;" d="M92 -342v1325h174v-545q0 -96 12.5 -143t47.5 -86q74 -86 178 -86q113 0 183.5 92t70.5 240v528h174v-983h-174v174q-78 -199 -256 -199q-147 0 -236 144v-461h-174z" />
<glyph unicode="&#xb6;" horiz-adv-x="1173" d="M72 1001q0 100 46 183.5t126 128.5q98 53 278 53h494v-84h-117v-1513h-106v1513h-207v-1513h-107v876h-30q-166 0 -271.5 99t-105.5 257z" />
<glyph unicode="&#xb7;" horiz-adv-x="487" d="M137 457v205h211v-205h-211z" />
<glyph unicode="&#xb8;" d="M418 -354q45 4 62 27q16 21 16 66v11h-78v180h188v-137q0 -217 -188 -229v82z" />
<glyph unicode="&#xb9;" horiz-adv-x="751" d="M145 1118v92h16q76 0 131 37q60 41 75 111h100v-811h-127v571h-195z" />
<glyph unicode="&#xba;" horiz-adv-x="735" d="M63 846q0 139 84 227t220 88q137 0 220 -88t83 -231q0 -137 -85 -224.5t-218 -87.5q-135 0 -219.5 87.5t-84.5 228.5zM199 846q0 -98 44 -153.5t123.5 -55.5t124 54t44.5 151q0 102 -43 157.5t-125 55.5q-80 0 -124 -54.5t-44 -154.5z" />
<glyph unicode="&#xbb;" horiz-adv-x="802" d="M104 231v199l177 133l-177 133v199l277 -229v-205zM444 231v199l177 133l-177 133v199l277 -229v-205z" />
<glyph unicode="&#xbc;" horiz-adv-x="1765" d="M145 1118v92h16q76 0 131 37q60 41 75 111h100v-811h-127v571h-195zM573 0l512 1366h107l-512 -1366h-107zM1087 182v119l388 510h108v-524h105v-105h-105v-182h-127v182h-369zM1217 287h239v239v33v29l2 28l-53 -77z" />
<glyph unicode="&#xbd;" horiz-adv-x="1765" d="M145 1118v92h16q76 0 131 37q60 41 75 111h100v-811h-127v571h-195zM573 0l512 1366h107l-512 -1366h-107zM1090 0v14q0 109 66.5 192t229.5 181q94 57 126 95t32 93q0 59 -42 98.5t-107 39.5q-109 0 -142 -86q-10 -29 -10 -109h-127q-2 16 -2 39q0 129 75 199.5 t208 70.5q125 0 202.5 -68.5t77.5 -180.5q0 -106 -78 -185q-39 -37 -178 -121q-139 -86 -172 -157h418v-115h-577z" />
<glyph unicode="&#xbe;" horiz-adv-x="1765" d="M51 825h129q4 -84 52.5 -132t127.5 -48q70 0 115 38t45 95q0 61 -52 101.5t-134 40.5q-18 0 -35 -2v104h29q76 0 122 34t46 89q0 49 -39 82t-97 33q-68 0 -107.5 -40t-39.5 -108v-14h-127q0 127 75 201.5t204 74.5q113 0 188.5 -64.5t75.5 -160.5q0 -115 -115 -174 q139 -66 139 -199q0 -106 -83 -176t-208 -70q-137 0 -222 81t-89 214zM573 0l512 1366h107l-512 -1366h-107zM1087 182v119l388 510h108v-524h105v-105h-105v-182h-127v182h-369zM1217 287h239v239v33v29l2 28l-53 -77z" />
<glyph unicode="&#xbf;" horiz-adv-x="1007" d="M61 -29q0 121 74 213q37 45 174 174q68 61 89.5 122t21.5 182h166v-50q0 -137 -60 -239q-37 -68 -164 -193q-68 -66 -92 -108.5t-24 -100.5q0 -94 68.5 -154.5t174.5 -60.5q264 0 271 324h174q-6 -231 -124 -356t-329 -125q-186 0 -303 103t-117 269zM397 784v205h211 v-205h-211z" />
<glyph unicode="&#xc0;" horiz-adv-x="1255" d="M20 0l502 1366h209l504 -1366h-213l-141 410h-514l-140 -410h-207zM377 1675h231l90 -225h-149zM424 573h401l-200 582z" />
<glyph unicode="&#xc1;" horiz-adv-x="1255" d="M20 0l502 1366h209l504 -1366h-213l-141 410h-514l-140 -410h-207zM424 573h401l-200 582zM561 1450l90 225h232l-172 -225h-150z" />
<glyph unicode="&#xc2;" horiz-adv-x="1255" d="M20 0l502 1366h209l504 -1366h-213l-141 410h-514l-140 -410h-207zM348 1448l191 229h196l185 -229h-181l-100 139l-100 -139h-191zM424 573h401l-200 582z" />
<glyph unicode="&#xc3;" horiz-adv-x="1255" d="M20 0l502 1366h209l504 -1366h-213l-141 410h-514l-140 -410h-207zM354 1475q41 184 189 184q39 0 82 -14l100 -35q20 -6 31 -6q41 0 63 55h137q-43 -193 -194 -193q-35 0 -72 15l-94 32q-23 8 -39 9q-41 0 -65 -47h-138zM424 573h401l-200 582z" />
<glyph unicode="&#xc4;" horiz-adv-x="1255" d="M20 0l502 1366h209l504 -1366h-213l-141 410h-514l-140 -410h-207zM389 1458v215h178v-215h-178zM424 573h401l-200 582zM702 1458v215h179v-215h-179z" />
<glyph unicode="&#xc5;" horiz-adv-x="1255" d="M20 0l502 1366h209l504 -1366h-213l-141 410h-514l-140 -410h-207zM424 573h401l-200 582zM453 1622q0 74 53 127t127 53q78 0 130 -53t52 -131q0 -72 -53 -125t-127 -53q-76 0 -129 53t-53 129zM537 1622q0 -41 28.5 -69.5t69.5 -28.5q39 0 67.5 28.5t28.5 67.5 q0 41 -27.5 69.5t-68.5 28.5q-39 0 -68.5 -28.5t-29.5 -67.5z" />
<glyph unicode="&#xc6;" horiz-adv-x="1863" d="M20 0l478 1366h1255v-170h-764v-412h699v-159h-699v-455h791v-170h-985v410h-461l-133 -410h-181zM387 573h408v623h-203z" />
<glyph unicode="&#xc7;" horiz-adv-x="1394" d="M104 688q0 311 179.5 510t459.5 199q217 0 364.5 -117t192.5 -324l-190 -18q-31 135 -128 212t-239 77q-197 0 -315.5 -146.5t-118.5 -388.5q0 -248 118 -400.5t310 -152.5q160 0 264.5 102.5t126.5 278.5h197q-23 -188 -117 -317q-168 -233 -475 -234q-305 0 -479 234 q-150 202 -150 485zM641 -354q45 4 62 27q16 21 16 66v11h-78v180h188v-137q0 -217 -188 -229v82z" />
<glyph unicode="&#xc8;" horiz-adv-x="1230" d="M162 0v1366h958v-170h-764v-412h699v-159h-699v-455h791v-170h-985zM381 1675h231l90 -225h-149z" />
<glyph unicode="&#xc9;" horiz-adv-x="1230" d="M162 0v1366h958v-170h-764v-412h699v-159h-699v-455h791v-170h-985zM592 1450l90 225h231l-172 -225h-149z" />
<glyph unicode="&#xca;" horiz-adv-x="1230" d="M162 0v1366h958v-170h-764v-412h699v-159h-699v-455h791v-170h-985zM371 1448l190 229h197l184 -229h-180l-100 139l-101 -139h-190z" />
<glyph unicode="&#xcb;" horiz-adv-x="1230" d="M162 0v1366h958v-170h-764v-412h699v-159h-699v-455h791v-170h-985zM412 1458v215h178v-215h-178zM725 1458v215h178v-215h-178z" />
<glyph unicode="&#xcc;" horiz-adv-x="516" d="M16 1675h232l90 -225h-150zM162 0v1366h194v-1366h-194z" />
<glyph unicode="&#xcd;" horiz-adv-x="516" d="M162 0v1366h194v-1366h-194zM195 1450l90 225h231l-172 -225h-149z" />
<glyph unicode="&#xce;" horiz-adv-x="516" d="M-20 1448l190 229h197l184 -229h-180l-101 139l-100 -139h-190zM162 0v1366h194v-1366h-194z" />
<glyph unicode="&#xcf;" horiz-adv-x="516" d="M43 1458v215h160v-215h-160zM160 0v1366h194v-1366h-194zM326 1458v215h159v-215h-159z" />
<glyph unicode="&#xd0;" horiz-adv-x="1361" d="M66 625v159h94v582h491q332 0 484 -219q123 -178 122 -451q0 -324 -165.5 -510t-452.5 -186h-479v625h-94zM354 170h244q233 0 347 129t114 391q0 227 -88 359q-100 147 -359 147h-258v-412h383v-159h-383v-455z" />
<glyph unicode="&#xd1;" horiz-adv-x="1396" d="M162 0v1366h198l537 -831q86 -129 162 -283q-6 113 -6 256v850h184v-1358h-197l-559 862q-86 131 -141 236q6 -92 6 -258v-840h-184zM453 1475q41 184 188 184q39 0 82 -14l100 -35q20 -6 31 -6q41 0 64 55h137q-43 -193 -195 -193q-35 0 -72 15l-94 32q-23 8 -39 9 q-41 0 -65 -47h-137z" />
<glyph unicode="&#xd2;" horiz-adv-x="1529" d="M104 684q0 311 185.5 512t472.5 201q295 0 478 -201t183 -522q0 -305 -186 -505t-473 -200q-289 0 -474.5 201t-185.5 514zM303 684q0 -244 128 -394.5t333 -150.5q203 0 332 150.5t129 386.5q0 248 -127 399.5t-334 151.5q-205 0 -333 -150.5t-128 -392.5zM522 1675h232 l90 -225h-150z" />
<glyph unicode="&#xd3;" horiz-adv-x="1529" d="M104 684q0 311 185.5 512t472.5 201q295 0 478 -201t183 -522q0 -305 -186 -505t-473 -200q-289 0 -474.5 201t-185.5 514zM303 684q0 -244 128 -394.5t333 -150.5q203 0 332 150.5t129 386.5q0 248 -127 399.5t-334 151.5q-205 0 -333 -150.5t-128 -392.5zM692 1450 l90 225h232l-172 -225h-150z" />
<glyph unicode="&#xd4;" horiz-adv-x="1529" d="M104 684q0 311 185.5 512t472.5 201q295 0 478 -201t183 -522q0 -305 -186 -505t-473 -200q-289 0 -474.5 201t-185.5 514zM303 684q0 -244 128 -394.5t333 -150.5q203 0 332 150.5t129 386.5q0 248 -127 399.5t-334 151.5q-205 0 -333 -150.5t-128 -392.5zM485 1448 l191 229h196l185 -229h-180l-101 139l-100 -139h-191z" />
<glyph unicode="&#xd5;" horiz-adv-x="1529" d="M104 684q0 311 185.5 512t472.5 201q295 0 478 -201t183 -522q0 -305 -186 -505t-473 -200q-289 0 -474.5 201t-185.5 514zM303 684q0 -244 128 -394.5t333 -150.5q203 0 332 150.5t129 386.5q0 248 -127 399.5t-334 151.5q-205 0 -333 -150.5t-128 -392.5zM498 1475 q41 184 188 184q39 0 82 -14l100 -35q20 -6 31 -6q41 0 64 55h137q-43 -193 -195 -193q-35 0 -71 15l-95 32q-23 8 -39 9q-41 0 -65 -47h-137z" />
<glyph unicode="&#xd6;" horiz-adv-x="1529" d="M104 684q0 311 185.5 512t472.5 201q295 0 478 -201t183 -522q0 -305 -186 -505t-473 -200q-289 0 -474.5 201t-185.5 514zM303 684q0 -244 128 -394.5t333 -150.5q203 0 332 150.5t129 386.5q0 248 -127 399.5t-334 151.5q-205 0 -333 -150.5t-128 -392.5zM524 1458v215 h178v-215h-178zM838 1458v215h178v-215h-178z" />
<glyph unicode="&#xd7;" d="M117 389l321 320l-319 319l74 72l317 -318l319 320l76 -74l-321 -321l321 -318l-74 -74l-319 320l-319 -322z" />
<glyph unicode="&#xd8;" horiz-adv-x="1529" d="M104 684q0 311 185.5 512t474.5 201q248 0 426 -154l151 170l74 -67l-155 -175q164 -199 163 -489q0 -311 -185 -512t-474 -201q-254 0 -434 162l-144 -162l-73 66l149 168q-158 188 -158 481zM303 684q0 -199 86 -338l678 762q-119 119 -303 119q-205 0 -333 -150.5 t-128 -392.5zM453 268q125 -129 311 -129q205 0 333 150.5t128 392.5q0 205 -92 348z" />
<glyph unicode="&#xd9;" horiz-adv-x="1392" d="M162 473v893h194v-920q0 -145 90.5 -226t251.5 -81q160 0 250 82t90 225v920h195v-893q0 -240 -121 -360q-147 -143 -416 -144q-266 0 -413 144q-121 120 -121 360zM496 1675h231l90 -225h-149z" />
<glyph unicode="&#xda;" horiz-adv-x="1392" d="M162 473v893h194v-920q0 -145 90.5 -226t251.5 -81q160 0 250 82t90 225v920h195v-893q0 -240 -121 -360q-147 -143 -416 -144q-266 0 -413 144q-121 120 -121 360zM651 1450l90 225h232l-172 -225h-150z" />
<glyph unicode="&#xdb;" horiz-adv-x="1392" d="M162 473v893h194v-920q0 -145 90.5 -226t251.5 -81q160 0 250 82t90 225v920h195v-893q0 -240 -121 -360q-147 -143 -416 -144q-266 0 -413 144q-121 120 -121 360zM426 1448l190 229h197l184 -229h-180l-100 139l-101 -139h-190z" />
<glyph unicode="&#xdc;" horiz-adv-x="1392" d="M162 473v893h194v-920q0 -145 90.5 -226t251.5 -81q160 0 250 82t90 225v920h195v-893q0 -240 -121 -360q-147 -143 -416 -144q-266 0 -413 144q-121 120 -121 360zM479 1458v215h178v-215h-178zM793 1458v215h178v-215h-178z" />
<glyph unicode="&#xdd;" horiz-adv-x="1198" d="M-4 1366h229l269 -451q47 -82 108 -202q55 111 109 202l262 451h229l-495 -825v-541h-195v541zM553 1450l90 225h231l-172 -225h-149z" />
<glyph unicode="&#xde;" horiz-adv-x="1214" d="M162 0v1366h194v-240h285q254 0 377 -98q135 -109 135 -311q0 -186 -127 -297q-66 -57 -148.5 -81t-222.5 -24h-299v-315h-194zM356 475h314q150 0 219 64q76 66 76 176q0 113 -76 178q-70 63 -219 63h-314v-481z" />
<glyph unicode="&#xdf;" horiz-adv-x="1044" d="M137 932q0 129 14.5 198.5t51.5 122.5q92 137 313 138q174 0 278.5 -92.5t104.5 -243.5q0 -186 -174 -273q113 -45 172 -138t59 -220q0 -193 -117.5 -315.5t-299.5 -122.5q-49 0 -115 14v145q47 -10 86 -10q119 0 187.5 79t68.5 212q0 180 -139 246q-61 27 -158 26 q-10 0 -37 -2v146q29 -2 53 -2q106 0 170 57t64 154q0 86 -55.5 138t-145.5 52q-92 0 -142 -52t-50 -151v-1038h-189v932z" />
<glyph unicode="&#xe0;" horiz-adv-x="1069" d="M88 266q0 240 299 299l219 43q88 16 116 36t28 67q0 72 -58.5 113.5t-159.5 41.5q-156 0 -198 -84q-18 -33 -23 -120h-176q12 164 80 241q100 113 322 113q182 0 283.5 -84t101.5 -238v-465q0 -57 10 -75.5t43 -18.5q20 0 49 10v-145q-76 -14 -123 -14q-66 0 -101.5 31.5 t-45.5 101.5q-145 -145 -342 -146q-143 0 -233.5 81t-90.5 212zM279 274q0 -68 51 -109.5t133 -41.5q119 0 205 75.5t86 182.5v127q-47 -20 -117 -37l-193 -45q-165 -39 -165 -152zM291 1305h231l90 -226h-149z" />
<glyph unicode="&#xe1;" horiz-adv-x="1069" d="M88 266q0 240 299 299l219 43q88 16 116 36t28 67q0 72 -58.5 113.5t-159.5 41.5q-156 0 -198 -84q-18 -33 -23 -120h-176q12 164 80 241q100 113 322 113q182 0 283.5 -84t101.5 -238v-465q0 -57 10 -75.5t43 -18.5q20 0 49 10v-145q-76 -14 -123 -14q-66 0 -101.5 31.5 t-45.5 101.5q-145 -145 -342 -146q-143 0 -233.5 81t-90.5 212zM279 274q0 -68 51 -109.5t133 -41.5q119 0 205 75.5t86 182.5v127q-47 -20 -117 -37l-193 -45q-165 -39 -165 -152zM469 1079l90 226h232l-173 -226h-149z" />
<glyph unicode="&#xe2;" horiz-adv-x="1069" d="M88 266q0 240 299 299l219 43q88 16 116 36t28 67q0 72 -58.5 113.5t-159.5 41.5q-156 0 -198 -84q-18 -33 -23 -120h-176q12 164 80 241q100 113 322 113q182 0 283.5 -84t101.5 -238v-465q0 -57 10 -75.5t43 -18.5q20 0 49 10v-145q-76 -14 -123 -14q-66 0 -101.5 31.5 t-45.5 101.5q-145 -145 -342 -146q-143 0 -233.5 81t-90.5 212zM276 1075l183 230h198l191 -230h-191l-102 139l-98 -139h-181zM279 274q0 -68 51 -109.5t133 -41.5q119 0 205 75.5t86 182.5v127q-47 -20 -117 -37l-193 -45q-165 -39 -165 -152z" />
<glyph unicode="&#xe3;" horiz-adv-x="1069" d="M88 266q0 240 299 299l219 43q88 16 116 36t28 67q0 72 -58.5 113.5t-159.5 41.5q-156 0 -198 -84q-18 -33 -23 -120h-176q12 164 80 241q100 113 322 113q182 0 283.5 -84t101.5 -238v-465q0 -57 10 -75.5t43 -18.5q20 0 49 10v-145q-76 -14 -123 -14q-66 0 -101.5 31.5 t-45.5 101.5q-145 -145 -342 -146q-143 0 -233.5 81t-90.5 212zM279 274q0 -68 51 -109.5t133 -41.5q119 0 205 75.5t86 182.5v127q-47 -20 -117 -37l-193 -45q-165 -39 -165 -152zM281 1104q39 182 188 182q39 0 82 -14l100 -33q25 -8 31 -8q41 0 63 55h138 q-43 -190 -195 -190q-25 0 -72 14l-94 31q-35 10 -39 10q-41 0 -65 -47h-137z" />
<glyph unicode="&#xe4;" horiz-adv-x="1069" d="M88 266q0 240 299 299l219 43q88 16 116 36t28 67q0 72 -58.5 113.5t-159.5 41.5q-156 0 -198 -84q-18 -33 -23 -120h-176q12 164 80 241q100 113 322 113q182 0 283.5 -84t101.5 -238v-465q0 -57 10 -75.5t43 -18.5q20 0 49 10v-145q-76 -14 -123 -14q-66 0 -101.5 31.5 t-45.5 101.5q-145 -145 -342 -146q-143 0 -233.5 81t-90.5 212zM279 274q0 -68 51 -109.5t133 -41.5q119 0 205 75.5t86 182.5v127q-47 -20 -117 -37l-193 -45q-165 -39 -165 -152zM311 1075v215h174v-215h-174zM625 1075v215h174v-215h-174z" />
<glyph unicode="&#xe5;" horiz-adv-x="1069" d="M88 266q0 240 299 299l219 43q88 16 116 36t28 67q0 72 -58.5 113.5t-159.5 41.5q-156 0 -198 -84q-18 -33 -23 -120h-176q12 164 80 241q100 113 322 113q182 0 283.5 -84t101.5 -238v-465q0 -57 10 -75.5t43 -18.5q20 0 49 10v-145q-76 -14 -123 -14q-66 0 -101.5 31.5 t-45.5 101.5q-145 -145 -342 -146q-143 0 -233.5 81t-90.5 212zM279 274q0 -68 51 -109.5t133 -41.5q119 0 205 75.5t86 182.5v127q-47 -20 -117 -37l-193 -45q-165 -39 -165 -152zM367 1262q0 74 53 127t127 53q78 0 130 -53.5t52 -131.5q0 -72 -53 -125t-127 -53 q-76 0 -129 53.5t-53 129.5zM451 1262q0 -41 28.5 -70t69.5 -29q39 0 67.5 29t28.5 68q0 41 -27.5 69.5t-68.5 28.5q-39 0 -68.5 -28.5t-29.5 -67.5z" />
<glyph unicode="&#xe6;" horiz-adv-x="1736" d="M88 266q0 240 299 299l219 43q88 16 116 36t28 67q0 72 -58.5 113.5t-159.5 41.5q-156 0 -198 -84q-18 -33 -23 -120h-176q12 164 80 241q100 113 322 113q236 0 335 -142q139 141 332 142q147 0 253 -76t153 -219q37 -109 39 -272h-721q10 -152 84.5 -235t201.5 -83 q176 0 242 172h178q-35 -156 -147.5 -243t-276.5 -87q-246 0 -383 203q-168 -203 -395 -203q-152 0 -248 82t-96 211zM279 276q0 -66 50 -105.5t134 -39.5q119 0 205 74t86 176v127q-68 -27 -117 -37l-193 -45q-165 -39 -165 -150zM930 586h522q-6 135 -70.5 207.5 t-177.5 72.5q-115 0 -190.5 -77.5t-83.5 -202.5z" />
<glyph unicode="&#xe7;" horiz-adv-x="1083" d="M88 496q0 236 134 378t360 142q182 0 293.5 -95.5t132.5 -267.5h-179q-43 205 -249 205q-135 0 -218 -99.5t-83 -260.5q0 -166 81.5 -266.5t219.5 -100.5q223 0 262 240h178q-20 -188 -136 -293t-309 -105q-221 0 -354 142.5t-133 380.5zM475 -354q45 4 63 27 q16 21 15 66v11h-78v180h189v-137q0 -217 -189 -229v82z" />
<glyph unicode="&#xe8;" horiz-adv-x="1083" d="M88 496q0 229 129 374.5t336 145.5q147 0 251.5 -76t153.5 -219q37 -109 39 -272h-721q10 -152 85 -235t202 -83q174 0 240 172h180q-35 -156 -147.5 -243t-276.5 -87q-209 0 -340 146t-131 377zM279 586h522q-6 135 -70.5 207.5t-177.5 72.5q-115 0 -190.5 -77.5 t-83.5 -202.5zM307 1305h232l90 -226h-150z" />
<glyph unicode="&#xe9;" horiz-adv-x="1083" d="M88 496q0 229 129 374.5t336 145.5q147 0 251.5 -76t153.5 -219q37 -109 39 -272h-721q10 -152 85 -235t202 -83q174 0 240 172h180q-35 -156 -147.5 -243t-276.5 -87q-209 0 -340 146t-131 377zM279 586h522q-6 135 -70.5 207.5t-177.5 72.5q-115 0 -190.5 -77.5 t-83.5 -202.5zM483 1079l90 226h232l-172 -226h-150z" />
<glyph unicode="&#xea;" horiz-adv-x="1083" d="M88 496q0 229 129 374.5t336 145.5q147 0 251.5 -76t153.5 -219q37 -109 39 -272h-721q10 -152 85 -235t202 -83q174 0 240 172h180q-35 -156 -147.5 -243t-276.5 -87q-209 0 -340 146t-131 377zM279 1075l182 230h198l191 -230h-191l-102 139l-98 -139h-180zM279 586 h522q-6 135 -70.5 207.5t-177.5 72.5q-115 0 -190.5 -77.5t-83.5 -202.5z" />
<glyph unicode="&#xeb;" horiz-adv-x="1083" d="M88 496q0 229 129 374.5t336 145.5q147 0 251.5 -76t153.5 -219q37 -109 39 -272h-721q10 -152 85 -235t202 -83q174 0 240 172h180q-35 -156 -147.5 -243t-276.5 -87q-209 0 -340 146t-131 377zM279 586h522q-6 135 -70.5 207.5t-177.5 72.5q-115 0 -190.5 -77.5 t-83.5 -202.5zM311 1075v215h174v-215h-174zM625 1075v215h174v-215h-174z" />
<glyph unicode="&#xec;" horiz-adv-x="462" d="M-10 1305h231l90 -226h-149zM139 0v989h189v-989h-189z" />
<glyph unicode="&#xed;" horiz-adv-x="462" d="M137 0v989h189v-989h-189zM166 1079l90 226h231l-172 -226h-149z" />
<glyph unicode="&#xee;" horiz-adv-x="462" d="M-41 1075l182 230h199l190 -230h-190l-102 139l-99 -139h-180zM137 0v989h189v-989h-189z" />
<glyph unicode="&#xef;" horiz-adv-x="462" d="M18 1075v215h158v-215h-158zM137 0v989h189v-989h-189zM303 1075v215h156v-215h-156z" />
<glyph unicode="&#xf0;" horiz-adv-x="1126" d="M88 504q0 227 137 375q133 137 312 137q117 0 211 -66q-53 104 -203 224l-109 -127l-104 83l100 121l-96 52l70 122q72 -31 120 -59l113 133l111 -88l-107 -123q193 -145 295 -346t102 -434q0 -246 -128 -390.5t-347 -144.5q-217 0 -347 144.5t-130 386.5zM279 496 q0 -174 74.5 -269.5t211.5 -95.5q133 0 209 95.5t76 262.5q0 178 -74 273.5t-213 95.5q-135 0 -209.5 -95t-74.5 -267z" />
<glyph unicode="&#xf1;" horiz-adv-x="1103" d="M137 989h180v-112q74 78 143.5 108.5t170.5 30.5q182 0 268 -109q66 -86 66 -245v-662h-189v647q0 201 -190 201q-121 0 -190.5 -66.5t-69.5 -181.5v-600h-189v989zM297 1104q39 182 188 182q39 0 82 -14l101 -33q25 -8 30 -8q41 0 64 55h137q-43 -190 -194 -190 q-25 0 -72 14l-94 31q-35 10 -39 10q-41 0 -66 -47h-137z" />
<glyph unicode="&#xf2;" horiz-adv-x="1126" d="M88 496q0 231 132 375.5t343 144.5q217 0 347 -144.5t130 -384.5q0 -227 -133 -370.5t-344 -143.5q-213 0 -344 145t-131 378zM279 496q0 -174 74.5 -269.5t211.5 -95.5q133 0 209 95.5t76 262.5q0 176 -75 272.5t-212 96.5q-135 0 -209.5 -95t-74.5 -267zM322 1305h231 l90 -226h-149z" />
<glyph unicode="&#xf3;" horiz-adv-x="1126" d="M88 496q0 231 132 375.5t343 144.5q217 0 347 -144.5t130 -384.5q0 -227 -133 -370.5t-344 -143.5q-213 0 -344 145t-131 378zM279 496q0 -174 74.5 -269.5t211.5 -95.5q133 0 209 95.5t76 262.5q0 176 -75 272.5t-212 96.5q-135 0 -209.5 -95t-74.5 -267zM500 1079 l90 226h231l-172 -226h-149z" />
<glyph unicode="&#xf4;" horiz-adv-x="1126" d="M88 496q0 231 132 375.5t343 144.5q217 0 347 -144.5t130 -384.5q0 -227 -133 -370.5t-344 -143.5q-213 0 -344 145t-131 378zM279 496q0 -174 74.5 -269.5t211.5 -95.5q133 0 209 95.5t76 262.5q0 176 -75 272.5t-212 96.5q-135 0 -209.5 -95t-74.5 -267zM293 1075 l182 230h199l190 -230h-190l-103 139l-98 -139h-180z" />
<glyph unicode="&#xf5;" horiz-adv-x="1126" d="M88 496q0 231 132 375.5t343 144.5q217 0 347 -144.5t130 -384.5q0 -227 -133 -370.5t-344 -143.5q-213 0 -344 145t-131 378zM279 496q0 -174 74.5 -269.5t211.5 -95.5q133 0 209 95.5t76 262.5q0 176 -75 272.5t-212 96.5q-135 0 -209.5 -95t-74.5 -267zM297 1104 q39 182 188 182q39 0 82 -14l101 -33q25 -8 30 -8q41 0 64 55h137q-43 -190 -194 -190q-25 0 -72 14l-94 31q-35 10 -39 10q-41 0 -66 -47h-137z" />
<glyph unicode="&#xf6;" horiz-adv-x="1126" d="M88 496q0 231 132 375.5t343 144.5q217 0 347 -144.5t130 -384.5q0 -227 -133 -370.5t-344 -143.5q-213 0 -344 145t-131 378zM279 496q0 -174 74.5 -269.5t211.5 -95.5q133 0 209 95.5t76 262.5q0 176 -75 272.5t-212 96.5q-135 0 -209.5 -95t-74.5 -267zM328 1075v215 h174v-215h-174zM641 1075v215h174v-215h-174z" />
<glyph unicode="&#xf7;" d="M39 655v105h946v-105h-946zM422 336q0 37 26.5 63.5t65.5 26.5q35 0 61.5 -26.5t26.5 -63.5t-26.5 -63.5t-63.5 -26.5t-63.5 26.5t-26.5 63.5zM422 1077q0 37 26.5 63.5t65.5 26.5q35 0 61.5 -26.5t26.5 -63.5t-26.5 -63.5t-63.5 -26.5t-63.5 26.5t-26.5 63.5z" />
<glyph unicode="&#xf8;" horiz-adv-x="1126" d="M88 496q0 231 132 375.5t345 144.5q174 0 305 -107l97 115l67 -57l-104 -119q111 -143 110 -352q0 -233 -131 -378t-344 -145q-174 0 -299 101l-104 -123l-68 57l111 127q-117 140 -117 361zM279 496q0 -139 45 -224l436 510q-78 76 -197 76q-135 0 -209.5 -95 t-74.5 -267zM377 201q76 -70 188 -70q135 0 210 95.5t75 267.5q0 131 -39 213z" />
<glyph unicode="&#xf9;" horiz-adv-x="1103" d="M137 328v661h189v-647q0 -201 190 -201q121 0 190.5 66.5t69.5 181.5v600h189v-989h-181v113q-74 -78 -143.5 -109t-169.5 -31q-182 0 -268 109q-66 86 -66 246zM342 1305h231l91 -226h-150z" />
<glyph unicode="&#xfa;" horiz-adv-x="1103" d="M137 328v661h189v-647q0 -201 190 -201q121 0 190.5 66.5t69.5 181.5v600h189v-989h-181v113q-74 -78 -143.5 -109t-169.5 -31q-182 0 -268 109q-66 86 -66 246zM494 1079l90 226h231l-172 -226h-149z" />
<glyph unicode="&#xfb;" horiz-adv-x="1103" d="M137 328v661h189v-647q0 -201 190 -201q121 0 190.5 66.5t69.5 181.5v600h189v-989h-181v113q-74 -78 -143.5 -109t-169.5 -31q-182 0 -268 109q-66 86 -66 246zM279 1075l182 230h198l191 -230h-191l-102 139l-98 -139h-180z" />
<glyph unicode="&#xfc;" horiz-adv-x="1103" d="M137 328v661h189v-647q0 -201 190 -201q121 0 190.5 66.5t69.5 181.5v600h189v-989h-181v113q-74 -78 -143.5 -109t-169.5 -31q-182 0 -268 109q-66 86 -66 246zM328 1075v215h174v-215h-174zM641 1075v215h174v-215h-174z" />
<glyph unicode="&#xfd;" horiz-adv-x="978" d="M6 989h203l219 -565q43 -113 74 -209q47 156 67 209l205 565h197l-436 -1108q-39 -102 -99.5 -148t-150.5 -46q-68 0 -152 30v154q72 -27 119 -27q100 0 137 103l27 78zM444 1079l91 226h231l-172 -226h-150z" />
<glyph unicode="&#xfe;" horiz-adv-x="1150" d="M137 -313v1679h189v-477q129 127 301 127q201 0 319.5 -143.5t118.5 -385.5q0 -236 -114.5 -375t-307.5 -139q-201 0 -317 140v-426h-189zM315 500q0 -178 73 -273.5t208 -95.5q133 0 205.5 95.5t72.5 269.5t-72.5 268t-205.5 94t-207 -94t-74 -264z" />
<glyph unicode="&#xff;" horiz-adv-x="978" d="M6 989h203l219 -565q43 -113 74 -209q47 156 67 209l205 565h197l-436 -1108q-39 -102 -99.5 -148t-150.5 -46q-68 0 -152 30v154q72 -27 119 -27q100 0 137 103l27 78zM264 1075v215h174v-215h-174zM578 1075v215h174v-215h-174z" />
<glyph unicode="&#x152;" horiz-adv-x="2150" d="M102 674q0 324 172 523.5t451 199.5q219 0 354 -148v117h959v-170h-764v-412h698v-159h-698v-455h792v-170h-987v113q-131 -143 -358 -144q-276 0 -447.5 195t-171.5 510zM301 684q0 -248 123 -396.5t328 -148.5q145 0 241 80q86 72 86 236v436q0 162 -63 231 q-100 104 -273 105q-201 0 -321.5 -148.5t-120.5 -394.5z" />
<glyph unicode="&#x153;" horiz-adv-x="1845" d="M88 495.5q0 233.5 132 377t345 143.5q236 0 379 -187q129 186 369 187q147 0 252.5 -76t154.5 -219q33 -98 39 -272h-721v-9q0 -141 80 -225t207 -84q174 0 240 172h178q-35 -156 -146.5 -243t-275.5 -87q-236 0 -375 189q-137 -188 -381 -189q-213 0 -345 144.5 t-132 378zM279 498q0 -174 74.5 -270.5t209.5 -96.5q137 0 212 92t75 269v10q0 174 -75 266t-212 92q-135 0 -209.5 -95t-74.5 -267zM1038 586h523q-6 135 -70 207.5t-176 72.5q-115 0 -192 -77.5t-85 -202.5z" />
<glyph unicode="&#x178;" horiz-adv-x="1198" d="M-4 1366h229l269 -451q47 -82 108 -202q55 111 109 202l262 451h229l-495 -825v-541h-195v541zM373 1458v215h178v-215h-178zM686 1458v215h178v-215h-178z" />
<glyph unicode="&#x2c6;" d="M227 1075l183 230h198l191 -230h-191l-102 139l-98 -139h-181z" />
<glyph unicode="&#x2dc;" d="M211 1104q39 182 188 182q39 0 82 -14l101 -33q25 -8 30 -8q41 0 64 55h137q-43 -190 -195 -190q-25 0 -71 14l-94 31q-35 10 -39 10q-41 0 -66 -47h-137z" />
<glyph unicode="&#x2013;" horiz-adv-x="1146" d="M104 475v170h940v-170h-940z" />
<glyph unicode="&#x2014;" horiz-adv-x="1310" d="M0 475v170h1311v-170h-1311z" />
<glyph unicode="&#x2018;" horiz-adv-x="487" d="M137 881v174q0 256 211 311v-125q-82 -41 -82 -156h82v-204h-211z" />
<glyph unicode="&#x2019;" horiz-adv-x="487" d="M137 881v125q82 41 82 155h-82v205h211v-174q0 -254 -211 -311z" />
<glyph unicode="&#x201a;" horiz-adv-x="487" d="M137 0v205h211v-174q0 -256 -211 -310v123q82 41 82 156h-82z" />
<glyph unicode="&#x201c;" horiz-adv-x="798" d="M137 881v174q0 256 211 311v-125q-82 -41 -82 -156h82v-204h-211zM451 881v174q0 256 211 311v-125q-82 -41 -82 -156h82v-204h-211z" />
<glyph unicode="&#x201d;" horiz-adv-x="798" d="M137 881v125q82 41 82 155h-82v205h211v-174q0 -254 -211 -311zM451 881v125q82 41 81 155h-81v205h211v-174q0 -254 -211 -311z" />
<glyph unicode="&#x201e;" horiz-adv-x="798" d="M137 0v205h211v-174q0 -256 -211 -310v123q82 41 82 156h-82zM451 0v205h211v-174q0 -256 -211 -310v123q82 41 81 156h-81z" />
<glyph unicode="&#x2022;" horiz-adv-x="1366" d="M401 692q0 119 84 202t205 83q113 0 196 -84t83 -199q0 -119 -83 -201.5t-200 -82.5t-201 82.5t-84 199.5z" />
<glyph unicode="&#x2026;" horiz-adv-x="1462" d="M137 0v205h211v-205h-211zM625 0v205h211v-205h-211zM1112 0v205h211v-205h-211z" />
<glyph unicode="&#x2039;" horiz-adv-x="462" d="M82 461v205l276 229v-199l-176 -133l176 -133v-199z" />
<glyph unicode="&#x203a;" horiz-adv-x="462" d="M104 231v199l177 133l-177 133v199l277 -229v-205z" />
<glyph unicode="&#x20ac;" horiz-adv-x="1497" d="M104 729l60 139h135q55 244 227 386.5t414 142.5q268 0 455 -180l-82 -193q-129 203 -373 203q-162 0 -276.5 -94.5t-161.5 -264.5h743l-59 -139h-707v-49v-45h666l-60 -139h-583q45 -168 161.5 -262.5t276.5 -94.5q236 0 369 199v-260q-154 -109 -371 -109 q-238 0 -411 142.5t-228 384.5h-195l60 139h117v51v43h-177z" />
<glyph unicode="&#x2122;" horiz-adv-x="1765" d="M23 1251v115h665v-115h-264v-704h-137v704h-264zM819 547v819h162l213 -520q35 -84 43 -119q4 10 21.5 57t23.5 60l209 518h164v-815h-131v479l2 113q-10 -33 -43 -115l-193 -477h-106l-199 487l-37 105q2 -49 2 -113v-479h-131z" />
<glyph unicode="&#xe000;" horiz-adv-x="990" d="M0 990h990v-990h-990v990z" />
<glyph unicode="&#xfb01;" horiz-adv-x="1005" d="M25 840v149h139v162q0 129 60.5 184.5t201.5 55.5q41 0 100 -11v-159q-51 6 -71 6q-61 0 -82 -28t-21 -107v-103h174v-149h-174v-840h-188v840h-139zM680 0v989h188v-989h-188zM680 1147v219h188v-219h-188z" />
<glyph unicode="&#xfb02;" horiz-adv-x="1005" d="M25 840v149h139v162q0 129 60.5 184.5t201.5 55.5q41 0 100 -11v-159q-51 6 -71 6q-61 0 -82 -28t-21 -107v-103h174v-149h-174v-840h-188v840h-139zM680 0v1366h188v-1366h-188z" />
<glyph unicode="&#xfb03;" horiz-adv-x="1548" d="M25 840v149h139v162q0 129 60.5 184.5t201.5 55.5q41 0 100 -11v-159q-51 6 -71 6q-61 0 -82 -28t-21 -107v-103h174v-149h-174v-840h-188v840h-139zM567 840v149h140v162q0 129 60 184.5t202 55.5q41 0 100 -11v-159q-51 6 -72 6q-61 0 -81.5 -28t-20.5 -107v-103h174 v-149h-174v-840h-188v840h-140zM1223 0v989h188v-989h-188zM1223 1147v219h188v-219h-188z" />
<glyph unicode="&#xfb04;" horiz-adv-x="1548" d="M25 840v149h139v162q0 129 60.5 184.5t201.5 55.5q41 0 100 -11v-159q-51 6 -71 6q-61 0 -82 -28t-21 -107v-103h174v-149h-174v-840h-188v840h-139zM567 840v149h140v162q0 129 60 184.5t202 55.5q41 0 100 -11v-159q-51 6 -72 6q-61 0 -81.5 -28t-20.5 -107v-103h174 v-149h-174v-840h-188v840h-140zM1223 0v1366h188v-1366h-188z" />
</font>
</defs>
</svg>
